# xmcd
#
# Track frame offsets:
#	182
#	15257
#	29075
#	43012
#	56707
#	69652
#	82182
#	97572
#	107672
#	118282
#	128717
#	137722
#	152390
#	163745
#	175520
#	186072
#	197890
#	210990
#
# Disc length: 2978
#
# Revision: 2
# Processed by: cddbd v1.5.1PL0 Copyright (c) Steve Scherf et al.
# Submitted via: dBpowerAMP V4.0
# Normalized: r0:TRMNUM;r1:TDELIM( - )
#
DISCID=ee0ba012
DTITLE=Essential Country V 1 D 1 - Essential Country Vol 1 Disk 1
DYEAR=1997
DGENRE=Country
TTITLE0=Don Gibson - I Can't Stop Loving You
TTITLE1=George Jones - Almost Persuaded
TTITLE2=Kenny Rogers - Ruby Don't Take Your Love To Town
TTITLE3=Don Williams - Where Do We Go From Here?
TTITLE4=Willie Nelson - The Shelter Of You Arms
TTITLE5=Jim Reeves - Four Walls
TTITLE6=Texas Tyler - Deck Of Cards
TTITLE7=Freddy Fender - But I Do
TTITLE8=Carl Perkins - Daddy Sang Bass
TTITLE9=George Jones - Why Baby Why
TTITLE10=Waylon Jennings - Love's Gonna Live Here
TTITLE11=Freddy Fender - Wasted Days And Wasted Nights
TTITLE12=Stonewall Jackson - Things To Think About
TTITLE13=Hank Locklin - Send Me The Pillow You Dream On
TTITLE14=Don Gibson - Sea Of Heartbreak
TTITLE15=George Jones - Talk Back Trembling Lips
TTITLE16=Kenny Rogers - Reuben James
TTITLE17=John Davis Band - Blue Blue Day
EXTD=
EXTT0=
EXTT1=
EXTT2=
EXTT3=
EXTT4=
EXTT5=
EXTT6=
EXTT7=
EXTT8=
EXTT9=
EXTT10=
EXTT11=
EXTT12=
EXTT13=
EXTT14=
EXTT15=
EXTT16=
EXTT17=
PLAYORDER=
